# xmcd CD database file
#
# Track frame offsets:
#	183
#	11928
#	26043
#	37468
#	45705
#	57670
#	71650
#	80750
#	95475
#	110565
#	124515
#	134885
#
# Disc length: 1916 seconds
#
# Revision: 0
# Processed by: cddbd v1.5.1PL0 Copyright (c) Steve Scherf et al.
# Submitted via: CDex 1.50beta10
#
DISCID=bd077a0c
DTITLE=Sergio Mendes - Brasil 66
DYEAR=1966
DGENRE=Jazz
TTITLE0=Mais Que Nada
TTITLE1=Day Tripper
TTITLE2=Agua De Beber
TTITLE3=One Note Samba - Spanish Flea
TTITLE4=The Joker
TTITLE5=Going Out of My Head
TTITLE6=Opato
TTITLE7=Constant Rain
TTITLE8=For Me
TTITLE9=Might and Day
TTITLE10=Wave
TTITLE11=So danco Samba
EXTD=YEAR: 1966
EXTT0=
EXTT1=
EXTT2=
EXTT3=
EXTT4=
EXTT5=
EXTT6=
EXTT7=
EXTT8=
EXTT9=
EXTT10=
EXTT11=
PLAYORDER=
